<svg xmlns="http://www.w3.org/2000/svg" xmlns:xlink="http://www.w3.org/1999/xlink" width="69" zoomAndPan="magnify" viewBox="0 0 51.75 51.749998" height="69" preserveAspectRatio="xMidYMid meet" version="1.2"><defs><clipPath id="33a948395a"><path d="M 0 0 L 51.5 0 L 51.5 51.5 L 0 51.5 Z M 0 0 "/></clipPath></defs><g id="92726260ed"><g clip-rule="nonzero" clip-path="url(#33a948395a)"><path style=" stroke:none;fill-rule:nonzero;fill:#ffffff;fill-opacity:1;" d="M 0 0 L 51.5 0 L 51.5 51.5 L 0 51.5 Z M 0 0 "/><path style=" stroke:none;fill-rule:nonzero;fill:#000000;fill-opacity:1;" d="M 0 0 L 51.5 0 L 51.5 51.5 L 0 51.5 Z M 0 0 "/></g><g style="fill:#ffffff;fill-opacity:1;"><g transform="translate(6.006236, 41.22659)"><path style="stroke:none" d="M 5.484375 -3.671875 C 2.710938 -6.691406 1.328125 -10.398438 1.328125 -14.796875 C 1.328125 -19.191406 2.710938 -22.910156 5.484375 -25.953125 C 8.265625 -29.003906 11.796875 -30.53125 16.078125 -30.53125 C 20.003906 -30.53125 23.238281 -29.296875 25.78125 -26.828125 L 25.78125 -29.65625 L 36.015625 -29.65625 L 36.015625 0 L 25.90625 0 L 25.90625 -3.359375 L 25.78125 -3.359375 C 23.238281 -0.546875 20.003906 0.859375 16.078125 0.859375 C 11.796875 0.859375 8.265625 -0.648438 5.484375 -3.671875 Z M 14.1875 -19.828125 C 12.863281 -18.515625 12.203125 -16.835938 12.203125 -14.796875 C 12.203125 -12.753906 12.835938 -11.085938 14.109375 -9.796875 C 15.378906 -8.503906 17.054688 -7.859375 19.140625 -7.859375 C 21.140625 -7.859375 22.785156 -8.515625 24.078125 -9.828125 C 25.367188 -11.140625 26.015625 -12.796875 26.015625 -14.796875 C 26.015625 -16.835938 25.347656 -18.515625 24.015625 -19.828125 C 22.691406 -21.140625 21.066406 -21.796875 19.140625 -21.796875 C 17.171875 -21.796875 15.519531 -21.140625 14.1875 -19.828125 Z M 14.1875 -19.828125 "/></g></g></g></svg>